# xmcd CD database file
#
# Track frame offsets:
#	150
#	16213
#	31276
#	52393
#	68111
#	84951
#	99220
#	114820
#	138594
#	153664
#	166585
#	178381
#	194221
#	210106
#
# Disc length: 3116 seconds
#
# Revision: 0
# Processed by: cddbd v1.5.1PL2 Copyright (c) Steve Scherf et al.
# Submitted via: CDex 1.50beta10
#
DISCID=b70c2a0e
DTITLE=Wayne Hancock - Best Of
DYEAR=2005
DGENRE=Country
TTITLE0=That's What Daddy Wants
TTITLE1=Juke Joint Jumping
TTITLE2=Brand New Cadillac
TTITLE3=Flat Land Boogie
TTITLE4=Thunderstorms and Neon Signs
TTITLE5=Kansas City Blues
TTITLE6=Double A Daddy
TTITLE7=Knocked Out Rhythm
TTITLE8=Wild Free and Reckless
TTITLE9=Why Don't You Leave Me Alone
TTITLE10=Gonne Be Some Trouble Tonight
TTITLE11=You Don't Have To Cry
TTITLE12=Life On The Road
TTITLE13=Johnson City
EXTD=YEAR: 2005
EXTT0=
EXTT1=
EXTT2=
EXTT3=
EXTT4=
EXTT5=
EXTT6=
EXTT7=
EXTT8=
EXTT9=
EXTT10=
EXTT11=
EXTT12=
EXTT13=
PLAYORDER=
